<svg xmlns="http://www.w3.org/2000/svg" width="303" height="86" viewBox="0 0 303 86">
    <path data-name="Path 4624" d="M22.4 45.118A11.2 11.2 0 1 1 10.732 34.4q.154-.006.309-.009A11.05 11.05 0 0 1 22.4 45.118" transform="translate(0 -30.548)" style="fill:#fbb11a"/>
    <path data-name="Path 4625" d="M176.542 245.35a11.2 11.2 0 1 1-11.651-10.737q.148-.006.3-.008a11.057 11.057 0 0 1 11.356 10.745" transform="translate(-110.053 -173.93)" style="fill:#73c315"/>
    <path data-name="Path 4626" d="M7.349 118a10.9 10.9 0 0 1-3.372-7.9l-.209-14.55a10.9 10.9 0 0 1 3.142-8 10.657 10.657 0 0 1 7.815-3.408l25.5-.37v.028l17.063-.238a3.127 3.127 0 0 0 2.3-1 3.218 3.218 0 0 0 .919-2.355L60.3 65.649a3.213 3.213 0 0 0-.986-2.329 3.125 3.125 0 0 0-2.323-.933l-25.453.37-.117-7.938 25.453-.372a10.62 10.62 0 0 1 7.894 3.181 10.917 10.917 0 0 1 3.364 7.907l.21 14.558a10.919 10.919 0 0 1-3.135 8 10.624 10.624 0 0 1-7.8 3.41l-25.453.367v-.038l-17.113.239a3.131 3.131 0 0 0-2.3 1 3.21 3.21 0 0 0-.919 2.355l.208 14.558a3.206 3.206 0 0 0 .989 2.327 3.146 3.146 0 0 0 2.33.933l25.5-.37.117 7.935-25.5.37h-.191A10.626 10.626 0 0 1 7.349 118" transform="translate(-2.686 -45.055)" style="fill:#fff"/>
    <path data-name="Path 4628" d="M1.936-.677v-30.657h4.305l6.765 18.471h.088v-18.471h4.481V-.677h-4.217L6.5-19.105h-.083V-.677zm29.037 0v-2.239h-.088a8.171 8.171 0 0 1-1.779 1.851 4.278 4.278 0 0 1-2.526.646 5.712 5.712 0 0 1-1.6-.237 4.175 4.175 0 0 1-1.559-.883 4.208 4.208 0 0 1-1.208-1.744 7.967 7.967 0 0 1-.461-2.949 15.268 15.268 0 0 1 .308-3.251 5.147 5.147 0 0 1 1.14-2.346 4.787 4.787 0 0 1 2.153-1.356 11.2 11.2 0 0 1 3.47-.452h.477a2.517 2.517 0 0 1 .483.043 2.782 2.782 0 0 0 .527.043 5.435 5.435 0 0 1 .659.043v-2.282a3.3 3.3 0 0 0-.483-1.851 1.949 1.949 0 0 0-1.757-.732 2.562 2.562 0 0 0-1.6.56 2.645 2.645 0 0 0-.944 1.636h-4.349a6.952 6.952 0 0 1 2.021-4.736 6.372 6.372 0 0 1 2.109-1.356 7.355 7.355 0 0 1 2.768-.5 7.922 7.922 0 0 1 2.636.431 6.04 6.04 0 0 1 2.153 1.292 6.3 6.3 0 0 1 1.406 2.153 7.939 7.939 0 0 1 .527 3.014v15.2zm0-9.386a7.5 7.5 0 0 0-1.23-.129 4.473 4.473 0 0 0-2.482.667 2.675 2.675 0 0 0-1.032 2.433 3.159 3.159 0 0 0 .615 2.024 2.064 2.064 0 0 0 1.713.775 2.233 2.233 0 0 0 1.779-.732 3.05 3.05 0 0 0 .637-2.067zm8.918-12.443v-6.631h4.481v6.631h2.768v3.445h-2.768v12.1a3.725 3.725 0 0 0 .154 1.206 1.2 1.2 0 0 0 .505.646 1.933 1.933 0 0 0 .857.258q.505.043 1.252.043v4.131h-1.846a6.159 6.159 0 0 1-2.57-.474 4.628 4.628 0 0 1-1.647-1.206 4.706 4.706 0 0 1-.9-1.658 6.053 6.053 0 0 1-.286-1.785v-13.262H37.65v-3.445zM49.951-.677v-21.83h4.481v21.83zm0-26.265v-4.392h4.481v4.392zm8.918 11.755a15.875 15.875 0 0 1 .176-2.454 5.875 5.875 0 0 1 .659-1.981 5.992 5.992 0 0 1 2.261-2.278 6.976 6.976 0 0 1 3.58-.861 6.976 6.976 0 0 1 3.58.861 5.992 5.992 0 0 1 2.262 2.282 5.875 5.875 0 0 1 .659 1.981 15.876 15.876 0 0 1 .176 2.454V-8a15.876 15.876 0 0 1-.176 2.454 5.875 5.875 0 0 1-.659 1.981 5.992 5.992 0 0 1-2.261 2.285 6.976 6.976 0 0 1-3.58.861 6.976 6.976 0 0 1-3.58-.861A5.992 5.992 0 0 1 59.7-3.562a5.875 5.875 0 0 1-.659-1.981A15.875 15.875 0 0 1 58.868-8zm4.481 7.879a2.628 2.628 0 0 0 .593 1.873 2.107 2.107 0 0 0 1.6.624 2.107 2.107 0 0 0 1.6-.624 2.628 2.628 0 0 0 .593-1.873v-8.568a2.628 2.628 0 0 0-.593-1.873 2.107 2.107 0 0 0-1.6-.624 2.107 2.107 0 0 0-1.6.624 2.628 2.628 0 0 0-.593 1.873zM76.66-.677v-21.83h4.48v2.11h.088a6.3 6.3 0 0 1 1.691-1.7 4.423 4.423 0 0 1 2.526-.667 5.223 5.223 0 0 1 1.669.28 3.875 3.875 0 0 1 1.494.926 4.652 4.652 0 0 1 1.055 1.658 6.826 6.826 0 0 1 .4 2.476V-.677h-4.486V-15.79a2.882 2.882 0 0 0-.571-1.895 1.992 1.992 0 0 0-1.625-.689 1.9 1.9 0 0 0-1.757.775 4.26 4.26 0 0 0-.483 2.239V-.677zm26.709 0v-2.239h-.088a8.171 8.171 0 0 1-1.781 1.851 4.278 4.278 0 0 1-2.526.646 5.712 5.712 0 0 1-1.6-.237 4.175 4.175 0 0 1-1.559-.883A4.208 4.208 0 0 1 94.6-3.282a7.967 7.967 0 0 1-.461-2.949 15.269 15.269 0 0 1 .308-3.251 5.147 5.147 0 0 1 1.142-2.347 4.787 4.787 0 0 1 2.153-1.356 11.2 11.2 0 0 1 3.47-.452h.483a2.517 2.517 0 0 1 .483.043 2.782 2.782 0 0 0 .527.043 5.435 5.435 0 0 1 .659.043v-2.282a3.3 3.3 0 0 0-.483-1.851 1.949 1.949 0 0 0-1.757-.732 2.562 2.562 0 0 0-1.6.56 2.645 2.645 0 0 0-.944 1.636h-4.349a6.952 6.952 0 0 1 2.021-4.736 6.372 6.372 0 0 1 2.109-1.356 7.355 7.355 0 0 1 2.768-.5 7.922 7.922 0 0 1 2.636.431 6.04 6.04 0 0 1 2.153 1.292 6.3 6.3 0 0 1 1.406 2.153 7.939 7.939 0 0 1 .527 3.014v15.2zm0-9.386a7.5 7.5 0 0 0-1.23-.129 4.473 4.473 0 0 0-2.482.667 2.675 2.675 0 0 0-1.032 2.433 3.159 3.159 0 0 0 .615 2.024 2.064 2.064 0 0 0 1.713.775 2.233 2.233 0 0 0 1.779-.732 3.05 3.05 0 0 0 .637-2.067zm8.654-21.27h4.477v24.5a2.382 2.382 0 0 0 .461 1.7 2.943 2.943 0 0 0 1.735.581v4.133a14.709 14.709 0 0 1-2.768-.237 4.841 4.841 0 0 1-2.109-.926 4 4 0 0 1-1.34-1.83 8.76 8.76 0 0 1-.461-3.122zm33.65 8.827h-4.481v-.99a4.62 4.62 0 0 0-.725-2.6 2.7 2.7 0 0 0-2.438-1.1 2.865 2.865 0 0 0-1.494.344 2.921 2.921 0 0 0-.923.861 3.6 3.6 0 0 0-.483 1.27 8.132 8.132 0 0 0-.129 1.482 14.271 14.271 0 0 0 .066 1.507 2.82 2.82 0 0 0 .329 1.076 2.413 2.413 0 0 0 .769.818 7.116 7.116 0 0 0 1.384.689l3.426 1.335a8.545 8.545 0 0 1 2.416 1.313 5.7 5.7 0 0 1 1.45 1.744 8.025 8.025 0 0 1 .659 2.347 22.764 22.764 0 0 1 .176 2.992 15.478 15.478 0 0 1-.4 3.6A7.5 7.5 0 0 1 144-3a6.3 6.3 0 0 1-2.416 1.895 8.672 8.672 0 0 1-3.646.689 8.118 8.118 0 0 1-3.031-.56 7.224 7.224 0 0 1-2.416-1.55 7.539 7.539 0 0 1-1.6-2.3A6.875 6.875 0 0 1 130.3-7.7v-1.632h4.481v1.378a3.54 3.54 0 0 0 .725 2.174 2.85 2.85 0 0 0 2.438.969 4 4 0 0 0 1.779-.323 2.345 2.345 0 0 0 .988-.926 3.35 3.35 0 0 0 .417-1.442q.066-.84.066-1.873a18.192 18.192 0 0 0-.088-1.981 3.357 3.357 0 0 0-.351-1.249 2.448 2.448 0 0 0-.813-.775 10.5 10.5 0 0 0-1.34-.646l-3.207-1.292a7.072 7.072 0 0 1-3.888-3.079 10.412 10.412 0 0 1-.988-4.8 10.932 10.932 0 0 1 .481-3.271 7.4 7.4 0 0 1 1.45-2.67 6.627 6.627 0 0 1 2.35-1.787 7.981 7.981 0 0 1 3.4-.667 7.564 7.564 0 0 1 3.053.6 7.874 7.874 0 0 1 2.394 1.593 6.586 6.586 0 0 1 2.021 4.736zM149.89-.677v-21.83h4.481v21.83zm0-26.265v-4.392h4.481v4.392zM159.2-.677v-21.83h4.481v2.11h.088a6.3 6.3 0 0 1 1.691-1.7 4.423 4.423 0 0 1 2.526-.667 5.223 5.223 0 0 1 1.669.28 3.875 3.875 0 0 1 1.494.926 4.652 4.652 0 0 1 1.054 1.658 6.825 6.825 0 0 1 .4 2.476V-.677h-4.483V-15.79a2.882 2.882 0 0 0-.571-1.895 1.992 1.992 0 0 0-1.625-.689 1.9 1.9 0 0 0-1.757.775 4.26 4.26 0 0 0-.483 2.239V-.677zm22.711 2.54a2.432 2.432 0 0 0 .637 1.464 2.164 2.164 0 0 0 1.735.689 1.82 1.82 0 0 0 1.581-.667 2.828 2.828 0 0 0 .483-1.7v-4.307h-.088A5.375 5.375 0 0 1 184.484-1a4.8 4.8 0 0 1-2.394.581 4.038 4.038 0 0 1-3.91-2.067 5.754 5.754 0 0 1-.571-1.808 18.727 18.727 0 0 1-.176-2.885v-8.31a33 33 0 0 1 .132-3.488 4.151 4.151 0 0 1 2.065-3.229 4.531 4.531 0 0 1 2.5-.56 5.167 5.167 0 0 1 1.428.172 4.274 4.274 0 0 1 1.076.474 4.611 4.611 0 0 1 .879.71q.4.409.835.883v-1.981h4.481v24.5a7.236 7.236 0 0 1-.373 2.26A5.515 5.515 0 0 1 189.25 6.3a6.185 6.185 0 0 1-2.109 1.529 7.254 7.254 0 0 1-3.031.581 7.469 7.469 0 0 1-2.11-.325 5.556 5.556 0 0 1-2.021-1.1 6.156 6.156 0 0 1-1.647-1.959 8.5 8.5 0 0 1-.9-3.165zm0-9.257a3.469 3.469 0 0 0 .461 1.808 1.849 1.849 0 0 0 1.735.775 2.123 2.123 0 0 0 1.6-.667 2.363 2.363 0 0 0 .637-1.7v-8.482a3 3 0 0 0-.615-1.959 1.994 1.994 0 0 0-1.625-.753 1.841 1.841 0 0 0-1.669.818 3.921 3.921 0 0 0-.527 2.153zm13.489-23.94h4.481v24.5a2.382 2.382 0 0 0 .461 1.7 2.943 2.943 0 0 0 1.735.581v4.134a14.708 14.708 0 0 1-2.768-.237 4.841 4.841 0 0 1-2.109-.926 4 4 0 0 1-1.34-1.83 8.76 8.76 0 0 1-.461-3.122zm22.536 21.4h-8.874v2.971a2.085 2.085 0 0 0 .593 1.593 2.241 2.241 0 0 0 1.6.56 1.778 1.778 0 0 0 1.691-.732 3.885 3.885 0 0 0 .505-1.464h4.481a6.219 6.219 0 0 1-1.8 4.65 6.307 6.307 0 0 1-2.109 1.421 7.084 7.084 0 0 1-2.768.517 6.976 6.976 0 0 1-3.58-.861 5.992 5.992 0 0 1-2.262-2.282 5.875 5.875 0 0 1-.659-1.981A15.876 15.876 0 0 1 204.582-8v-7.191a15.876 15.876 0 0 1 .176-2.454 5.875 5.875 0 0 1 .659-1.981 5.991 5.991 0 0 1 2.262-2.282 6.976 6.976 0 0 1 3.58-.861 7.248 7.248 0 0 1 2.79.517 6.256 6.256 0 0 1 2.131 1.421 6.969 6.969 0 0 1 1.757 4.865zm-8.874-3.445h4.393v-2.5a2.628 2.628 0 0 0-.593-1.873 2.107 2.107 0 0 0-1.6-.624 2.107 2.107 0 0 0-1.6.624 2.628 2.628 0 0 0-.593 1.873z" transform="translate(84.541 31.592)" style="fill:#fff"/>
    <path data-name="Path 4627" d="M24.234-29.9 19.782 0H15.75l-3.276-19.4h-.084L9.156 0H5.124L.672-29.9h4.536L7.35-10.92h.084l3.36-18.98h3.276l3.486 19.446h.084L19.7-29.9zM27.762 0v-21.294h4.284V0zm0-25.62v-4.28h4.284v4.284zM36.666 0v-21.294h4.284v2.058h.084a6.089 6.089 0 0 1 1.617-1.664 4.166 4.166 0 0 1 2.415-.651 4.9 4.9 0 0 1 1.6.273 3.694 3.694 0 0 1 1.428.9 4.55 4.55 0 0 1 1.006 1.625 6.78 6.78 0 0 1 .378 2.415V0h-4.286v-14.742a2.85 2.85 0 0 0-.546-1.848 1.888 1.888 0 0 0-1.554-.672 1.807 1.807 0 0 0-1.68.756 4.225 4.225 0 0 0-.462 2.184V0zM58.38-6.93a3.886 3.886 0 0 0 .5 2.1 1.749 1.749 0 0 0 1.6.8 1.892 1.892 0 0 0 1.554-.735 2.966 2.966 0 0 0 .588-1.911v-8.274a2.332 2.332 0 0 0-.609-1.659 2.01 2.01 0 0 0-1.533-.651 1.755 1.755 0 0 0-1.659.756 3.437 3.437 0 0 0-.441 1.764zM62.622 0v-1.932q-.42.462-.8.861a4.427 4.427 0 0 1-.84.693 3.98 3.98 0 0 1-1.05.462 5.076 5.076 0 0 1-1.386.168 3.843 3.843 0 0 1-3.736-2.016 5.694 5.694 0 0 1-.546-1.764 18.632 18.632 0 0 1-.164-2.814v-8.106a32.837 32.837 0 0 1 .126-3.4A4.057 4.057 0 0 1 56.2-21a4.263 4.263 0 0 1 2.394-.546 4.429 4.429 0 0 1 2.247.567 5.181 5.181 0 0 1 1.7 1.617h.084V-29.9h4.284V0zm8.526-14.154a15.794 15.794 0 0 1 .168-2.394 5.81 5.81 0 0 1 .63-1.932 5.79 5.79 0 0 1 2.163-2.226 6.565 6.565 0 0 1 3.423-.84 6.565 6.565 0 0 1 3.423.84 5.79 5.79 0 0 1 2.163 2.226 5.81 5.81 0 0 1 .63 1.932 15.794 15.794 0 0 1 .168 2.394v7.014a15.794 15.794 0 0 1-.168 2.394 5.81 5.81 0 0 1-.63 1.932 5.79 5.79 0 0 1-2.163 2.226 6.565 6.565 0 0 1-3.423.84 6.565 6.565 0 0 1-3.423-.84 5.79 5.79 0 0 1-2.163-2.226 5.81 5.81 0 0 1-.63-1.932 15.794 15.794 0 0 1-.168-2.394zm4.284 7.686A2.6 2.6 0 0 0 76-4.641a1.993 1.993 0 0 0 1.533.609 1.993 1.993 0 0 0 1.533-.609 2.6 2.6 0 0 0 .567-1.827v-8.358a2.6 2.6 0 0 0-.567-1.827 1.993 1.993 0 0 0-1.533-.609 1.993 1.993 0 0 0-1.533.609 2.6 2.6 0 0 0-.567 1.827zm32.886-14.826L103.278 0H99.5l-2.354-12.642h-.084L94.71 0h-3.78l-5.04-21.294h4.536l2.6 13.23h.084l2.394-13.23h3.36l2.268 13.23h.084l2.562-13.23zm25.914 0h-4.284v-.966a4.574 4.574 0 0 0-.693-2.541 2.563 2.563 0 0 0-2.331-1.071 2.7 2.7 0 0 0-1.428.336 2.816 2.816 0 0 0-.882.84 3.552 3.552 0 0 0-.462 1.239 8.089 8.089 0 0 0-.126 1.449 14.2 14.2 0 0 0 .063 1.47 2.791 2.791 0 0 0 .315 1.05 2.336 2.336 0 0 0 .735.8 6.752 6.752 0 0 0 1.323.672l3.276 1.3a8.122 8.122 0 0 1 2.31 1.281 5.538 5.538 0 0 1 1.386 1.7 7.951 7.951 0 0 1 .63 2.289 22.652 22.652 0 0 1 .168 2.919 15.392 15.392 0 0 1-.378 3.507 7.388 7.388 0 0 1-1.218 2.751 6.046 6.046 0 0 1-2.31 1.848 8.148 8.148 0 0 1-3.486.672 7.626 7.626 0 0 1-2.9-.546 6.893 6.893 0 0 1-2.31-1.512 7.358 7.358 0 0 1-1.53-2.246 6.823 6.823 0 0 1-.567-2.793v-1.6h4.284V-7.1a3.5 3.5 0 0 0 .693 2.121 2.7 2.7 0 0 0 2.331.945 3.759 3.759 0 0 0 1.7-.315 2.261 2.261 0 0 0 .945-.9 3.316 3.316 0 0 0 .4-1.407q.063-.819.063-1.827a18.1 18.1 0 0 0-.084-1.932 3.325 3.325 0 0 0-.336-1.218 2.361 2.361 0 0 0-.777-.756 9.958 9.958 0 0 0-1.281-.63L124.4-14.28a6.791 6.791 0 0 1-3.717-3 10.33 10.33 0 0 1-.945-4.683 10.864 10.864 0 0 1 .462-3.192 7.26 7.26 0 0 1 1.386-2.6 6.352 6.352 0 0 1 2.247-1.743 7.5 7.5 0 0 1 3.255-.651 7.107 7.107 0 0 1 2.919.588 7.519 7.519 0 0 1 2.289 1.554 6.489 6.489 0 0 1 1.932 4.62zm2.226 0h4.536l2.94 13.272h.084l2.9-13.272h4.41L145.194 3.7a7.3 7.3 0 0 1-.945 2.352 5.849 5.849 0 0 1-1.407 1.512 4.9 4.9 0 0 1-1.7.819 7.512 7.512 0 0 1-1.869.231H138.1V4.578h.966a3.2 3.2 0 0 0 1.092-.168 1.764 1.764 0 0 0 .84-.756A7.386 7.386 0 0 0 141.624 2q.294-1.071.672-2.961zm25.452 5.964a2.131 2.131 0 0 0-.693-1.638 2.254 2.254 0 0 0-1.491-.546 1.915 1.915 0 0 0-1.554.651 2.254 2.254 0 0 0-.546 1.491 2.483 2.483 0 0 0 .294 1.155 2.736 2.736 0 0 0 1.512 1.029l2.52 1.008a6.113 6.113 0 0 1 3.3 2.52 6.958 6.958 0 0 1 .9 3.486 6.412 6.412 0 0 1-.483 2.5 6.639 6.639 0 0 1-1.323 2.037 6.025 6.025 0 0 1-2.016 1.385 6.435 6.435 0 0 1-2.562.5 6.176 6.176 0 0 1-4.368-1.634 6.013 6.013 0 0 1-1.428-2 7.134 7.134 0 0 1-.588-2.793h4.032a4.081 4.081 0 0 0 .609 1.638 1.86 1.86 0 0 0 1.7.756 2.532 2.532 0 0 0 1.659-.609 2.087 2.087 0 0 0 .735-1.7 2.486 2.486 0 0 0-.462-1.512 3.636 3.636 0 0 0-1.68-1.092l-2.057-.752a7.01 7.01 0 0 1-3.171-2.247 5.754 5.754 0 0 1-1.155-3.633 6.18 6.18 0 0 1 .5-2.5 6.08 6.08 0 0 1 1.386-2 5.658 5.658 0 0 1 1.974-1.281 6.662 6.662 0 0 1 2.436-.441 6.237 6.237 0 0 1 2.415.462 5.52 5.52 0 0 1 1.911 1.3 6.209 6.209 0 0 1 1.26 1.995 6.554 6.554 0 0 1 .462 2.457zm8.106-5.964v-6.468h4.284v6.468h2.646v3.36H174.3v11.8a3.7 3.7 0 0 0 .147 1.176 1.168 1.168 0 0 0 .483.63 1.822 1.822 0 0 0 .819.252q.483.042 1.2.042V0h-1.764a5.786 5.786 0 0 1-2.457-.462 4.431 4.431 0 0 1-1.575-1.176 4.619 4.619 0 0 1-.861-1.617A6.014 6.014 0 0 1 170.016-5v-12.934h-2.142v-3.36zm22.05 12.264h-8.484v2.9a2.057 2.057 0 0 0 .567 1.554 2.117 2.117 0 0 0 1.533.546 1.688 1.688 0 0 0 1.617-.714 3.841 3.841 0 0 0 .483-1.428h4.284a6.133 6.133 0 0 1-1.722 4.536 6.025 6.025 0 0 1-2.016 1.386 6.655 6.655 0 0 1-2.646.5 6.565 6.565 0 0 1-3.423-.84 5.79 5.79 0 0 1-2.159-2.224 5.81 5.81 0 0 1-.63-1.932 15.794 15.794 0 0 1-.17-2.394v-7.014a15.794 15.794 0 0 1 .168-2.394 5.81 5.81 0 0 1 .63-1.932 5.79 5.79 0 0 1 2.163-2.226 6.565 6.565 0 0 1 3.423-.84 6.808 6.808 0 0 1 2.667.5 5.975 5.975 0 0 1 2.037 1.386 6.88 6.88 0 0 1 1.68 4.746zm-8.484-3.36h4.2v-2.436a2.6 2.6 0 0 0-.567-1.827 1.993 1.993 0 0 0-1.533-.609 1.993 1.993 0 0 0-1.533.609 2.6 2.6 0 0 0-.567 1.827zM196.266 0v-21.294h4.284v2.058h.084a6.089 6.089 0 0 1 1.617-1.659 4.166 4.166 0 0 1 2.415-.651 3.824 3.824 0 0 1 2.31.672 6.883 6.883 0 0 1 1.512 1.47 9.014 9.014 0 0 1 1.764-1.512 4.894 4.894 0 0 1 2.688-.63 5.284 5.284 0 0 1 1.638.273 4 4 0 0 1 1.512.9 4.7 4.7 0 0 1 1.092 1.617 6.168 6.168 0 0 1 .42 2.415V0h-4.284v-14.742a2.85 2.85 0 0 0-.546-1.848 1.888 1.888 0 0 0-1.554-.672 1.807 1.807 0 0 0-1.68.756 4.225 4.225 0 0 0-.462 2.184V0h-4.284v-14.742a2.85 2.85 0 0 0-.546-1.848 1.888 1.888 0 0 0-1.554-.672 1.807 1.807 0 0 0-1.68.756 4.225 4.225 0 0 0-.462 2.184V0z" transform="translate(85.398 77.39)" style="fill:#fff"/>
</svg>
